<?xml version="1.0" encoding="iso-8859-1"?>
<!-- Generator: Adobe Illustrator 19.1.1, SVG Export Plug-In . SVG Version: 6.00 Build 0)  -->
<svg version="1.1"  xmlns="http://www.w3.org/2000/svg" xmlns:xlink="http://www.w3.org/1999/xlink" x="0px" y="0px"
	 viewBox="0 0 48 48" style="enable-background:new 0 0 48 48;" xml:space="preserve">
<path style="fill:#FF754C;" d="M44,24c0,11.047-8.954,20-20,20S4,35.047,4,24S12.954,4,24,4S44,12.953,44,24"/>
<path style="fill:#E64A19;" d="M25,25h6.059c0.374,5.014,3.524,9.385,8.138,11.984c0.436-0.512,0.849-1.041,1.231-1.594
	C36.289,33.16,33.441,29.365,33.06,25h10.89C43.966,24.668,44,24.338,44,24c0-0.338-0.034-0.668-0.051-1H33.06
	c0.382-4.365,3.229-8.16,7.368-10.391c-0.383-0.553-0.796-1.082-1.231-1.594c-4.613,2.6-7.764,6.971-8.138,11.984H25V4.051
	C24.667,4.035,24.338,4,24,4c-0.338,0-0.667,0.035-1,0.051V23h-6.059c-0.375-5.014-3.524-9.385-8.138-11.984
	c-0.435,0.512-0.849,1.041-1.231,1.594c4.139,2.23,6.985,6.025,7.367,10.391H4.051C4.034,23.332,4,23.662,4,24
	c0,0.338,0.034,0.668,0.051,1h10.889c-0.382,4.365-3.229,8.16-7.367,10.391c0.383,0.553,0.796,1.082,1.231,1.594
	c4.613-2.6,7.763-6.971,8.138-11.984H23v18.949C23.333,43.965,23.662,44,24,44c0.338,0,0.667-0.035,1-0.051V25z"/>
</svg>
