<?xml version="1.0" encoding="iso-8859-1"?>
<!-- Generator: Adobe Illustrator 19.1.1, SVG Export Plug-In . SVG Version: 6.00 Build 0)  -->
<svg version="1.1"  xmlns="http://www.w3.org/2000/svg" xmlns:xlink="http://www.w3.org/1999/xlink" x="0px" y="0px"
	 viewBox="0 0 48 48" style="enable-background:new 0 0 48 48;" xml:space="preserve">
<path style="fill:#FFBA57;" d="M39.427,24.32l-12.452-9.296c-1.367-1.366-3.582-1.366-4.949,0l-8,8
	C13.47,23.58,13.152,24.278,13.048,25C13.021,25,13,25,13,25l-1.25,7.982l-4.758-2.719c-0.958-0.548-2.18-0.215-2.729,0.744
	c-0.548,0.959-0.215,2.181,0.744,2.729l7,4C12.313,37.911,12.656,38,13,38c0.26,0,0.52-0.051,0.766-0.152
	c0.571-0.236,1.001-0.725,1.164-1.321l2.383-7.394l5.931,2.504l-3.94,6.305c-0.585,0.937-0.301,2.17,0.637,2.756
	C20.27,40.902,20.636,41,20.998,41c0.667,0,1.318-0.333,1.698-0.94l5-8c0.585-0.937,0.301-2.17-0.637-2.756l-5.794-3.621
	l5.709-5.708l6.193,3.455l4.405,3.25c0.274,0.216,0.602,0.32,0.926,0.32c0.444,0,0.885-0.196,1.181-0.573
	C40.191,25.775,40.078,24.833,39.427,24.32z"/>
<path style="fill:#5C6BC0;" d="M40.5,16c1.933,0,3.5,1.566,3.5,3.5S42.433,23,40.5,23c-1.934,0-3.5-1.566-3.5-3.5S38.566,16,40.5,16
	"/>
<path style="fill:#FFBA57;" d="M31,9.5c0,1.933-1.567,3.5-3.5,3.5c-1.932,0-3.5-1.567-3.5-3.5S25.568,6,27.5,6
	C29.433,6,31,7.567,31,9.5"/>
<path style="fill:#E5D9C5;" d="M44,40c-1.125,0-1.969-0.281-2.584-0.633c-0.868-0.496-1.964-0.496-2.832,0
	C37.969,39.719,37.125,40,36,40s-1.969-0.281-2.584-0.633c-0.868-0.496-1.964-0.496-2.832,0C29.969,39.719,29.125,40,28,40
	s-1.969-0.281-2.584-0.633c-0.868-0.496-1.964-0.496-2.832,0C21.969,39.719,21.125,40,20,40s-1.969-0.281-2.584-0.633
	c-0.868-0.496-1.964-0.496-2.832,0C13.969,39.719,13.125,40,12,40s-1.969-0.281-2.584-0.633c-0.868-0.496-1.964-0.496-2.832,0
	C5.969,39.719,5.125,40,4,40v4h40V40z"/>
<path style="fill:#2D4C5C;" d="M16.025,21.025l-2,2C13.47,23.58,13.152,24.278,13.048,25C13.526,25.001,18,25.065,18,27
	l-0.602,1.868c0.576-0.153,1.124-0.441,1.577-0.893l2-2L16.025,21.025z"/>
<path style="fill:#FF66A1;" d="M25.573,15.68c0.552-0.888,1.401-0.655,1.401-0.655c-1.367-1.366-3.582-1.366-4.949,0l-2.5,2.5
	l4.95,4.95l2.5-2.5C26.323,19.463,24,18.125,25.573,15.68z"/>
</svg>
