<?xml version="1.0" encoding="iso-8859-1"?>
<!-- Generator: Adobe Illustrator 19.1.1, SVG Export Plug-In . SVG Version: 6.00 Build 0)  -->
<svg version="1.1" id="Layer_1" xmlns="http://www.w3.org/2000/svg" xmlns:xlink="http://www.w3.org/1999/xlink" x="0px" y="0px"
	 viewBox="0 0 40 40" style="enable-background:new 0 0 40 40;" xml:space="preserve">
<g>
	<path style="fill:#FFC49C;" d="M3.018,38.5c1.731-0.858,4.34-2,5.982-2c3.199,0,7.529-0.856,10.153-1.702
		c0.649-0.209,1.19-0.298,1.809-0.298c0.234,0,0.578,0.246,0.881,0.464C22.227,35.239,22.59,35.5,23,35.5
		c2.004,0,3.448-0.807,4.845-1.588c1.3-0.726,2.528-1.412,4.155-1.412c0.498,0,1.088,0.591,1.563,1.065
		c0.5,0.502,0.932,0.935,1.438,0.935c0.942,0,1.425-1.263,2.037-2.862c0.393-1.028,0.899-2.352,1.463-2.892V38.5H3.018z"/>
	<path style="fill:#A16A4A;" d="M38,30.578V38H5.314C6.66,37.444,8.043,37,9,37c3.251,0,7.646-0.868,10.306-1.726
		c0.598-0.192,1.093-0.274,1.636-0.276c0.122,0.022,0.426,0.24,0.608,0.371C21.962,35.665,22.429,36,23,36
		c2.134,0,3.704-0.877,5.089-1.651C29.384,33.625,30.503,33,32,33c0.291,0,0.865,0.575,1.209,0.919C33.763,34.475,34.287,35,35,35
		c1.286,0,1.85-1.475,2.504-3.184C37.622,31.508,37.8,31.042,38,30.578 M39,28c-2.008,0-2.668,6-4,6c-0.695,0-1.765-2-3-2
		c-3.553,0-5.293,3-9,3c-0.54,0-1.304-1-2.038-1s-1.34,0.122-1.962,0.323C16.406,35.159,12.127,36,9,36c-2.786,0-8,3-8,3h38V28
		L39,28z"/>
</g>
<circle style="fill:#36404D;" cx="31" cy="24" r="1"/>
<circle style="fill:#36404D;" cx="9" cy="28" r="1"/>
<g>
	<path style="fill:#A3B7CC;" d="M31,18c3.314,0,6,2.686,6,6s-2.686,6-6,6s-6-2.686-6-6S27.686,18,31,18 M31,17c-3.86,0-7,3.14-7,7
		s3.14,7,7,7s7-3.14,7-7S34.86,17,31,17L31,17z"/>
</g>
<g>
	<path style="fill:#A3B7CC;" d="M9,22c3.314,0,6,2.686,6,6s-2.686,6-6,6s-6-2.686-6-6S5.686,22,9,22 M9,21c-3.86,0-7,3.14-7,7
		s3.14,7,7,7s7-3.14,7-7S12.86,21,9,21L9,21z"/>
</g>
<g>
	<circle style="fill:#FFEEA3;" cx="22" cy="4" r="2.5"/>
	<g>
		<path style="fill:#BA9B48;" d="M22,2c1.103,0,2,0.897,2,2s-0.897,2-2,2s-2-0.897-2-2S20.897,2,22,2 M22,1c-1.657,0-3,1.343-3,3
			s1.343,3,3,3s3-1.343,3-3S23.657,1,22,1L22,1z"/>
	</g>
</g>
<g>
	<g>
		<path style="fill:#FFEEA3;" d="M20.999,30.5c-0.613,0-1.159-0.358-1.404-0.917l-1.102-7.192l-7.511-2.979
			c-0.279-0.156-0.577-0.431-0.831-0.789c-0.936-1.325-0.785-3.261,0.357-4.603l4.983-5.393C16.043,7.896,16.838,7.5,17.705,7.5
			c0.475,0,0.943,0.124,1.356,0.357l0.061,0.035l0.096,0.024l3.191,1.563c-1.975,2.249-4.273,4.576-5.549,5.866
			c-0.486,0.492-0.825,0.836-0.945,0.971l-0.386,0.434l4.619,3.008c0.436,0.195,0.722,0.479,0.877,0.838l1.327,7.616l0.02,0.049
			c0.311,0.777,0.037,1.675-0.622,2.042C21.517,30.434,21.265,30.5,20.999,30.5z"/>
		<path style="fill:#BA9B48;" d="M17.705,8c0.388,0,0.771,0.101,1.109,0.293l0.079,0.045l0.085,0.03
			c0.007,0.002,0.014,0.005,0.021,0.007l2.599,1.268c-1.854,2.075-3.907,4.153-5.084,5.344c-0.565,0.572-0.843,0.854-0.973,1
			l-0.77,0.868l0.973,0.633l4.131,2.69l0.072,0.047l0.079,0.034c0.229,0.098,0.41,0.27,0.519,0.488l1.307,7.501l0.018,0.103
			l0.039,0.097c0.219,0.548,0.043,1.171-0.401,1.419C21.348,29.955,21.177,30,20.999,30c-0.394,0-0.746-0.218-0.922-0.564
			l-1.047-6.838l-0.087-0.567L18.41,21.82l-7.182-2.849c-0.247-0.144-0.471-0.358-0.668-0.637c-0.806-1.142-0.668-2.819,0.302-3.96
			l4.996-5.407l0.035-0.038l0.031-0.041C16.348,8.324,16.997,8,17.705,8 M17.705,7c-0.98,0-1.946,0.443-2.581,1.289l-4.996,5.407
			c-1.251,1.469-1.498,3.639-0.385,5.215c0.275,0.389,0.62,0.729,1.054,0.965l7.244,2.873l1.068,6.97
			c0.318,0.797,1.083,1.28,1.89,1.28c0.334,0,0.674-0.081,0.994-0.26c0.917-0.511,1.233-1.689,0.843-2.664l-1.327-7.62
			c-0.2-0.502-0.592-0.903-1.088-1.116l-4.131-2.69c0.452-0.51,4.131-4.085,6.924-7.332l-3.851-1.879
			c-0.018-0.007-0.036-0.009-0.055-0.016C18.806,7.139,18.253,7,17.705,7L17.705,7z"/>
	</g>
</g>
<g>
	<g>
		<path style="fill:#8BB7F0;" d="M10.982,19.412c-0.279-0.156-0.577-0.431-0.831-0.789c-0.978-1.386-0.832-3.476,0.32-4.563
			l0.378-0.409l8.867,5.825l-1.858,2.664L10.982,19.412z"/>
		<path style="fill:#4E7AB5;" d="M10.931,14.302l8.081,5.31l-1.338,1.918l-6.446-2.557c-0.247-0.144-0.472-0.358-0.668-0.637
			c-0.843-1.194-0.727-2.985,0.254-3.911L10.84,14.4l0.023-0.025L10.931,14.302 M10.771,13l-0.643,0.697
			c-1.354,1.279-1.498,3.639-0.385,5.215c0.275,0.389,0.62,0.729,1.054,0.965l7.244,2.873l2.379-3.41L10.771,13L10.771,13z"/>
	</g>
</g>
<g>
	<path style="fill:#99C99E;" d="M10.851,13.662l4.642-5.034C16.043,7.896,16.838,7.5,17.705,7.5c0.475,0,0.943,0.124,1.356,0.357
		l0.061,0.035l0.096,0.024l3.19,1.563c-2.225,2.527-5.528,5.879-6.892,7.248L10.851,13.662z"/>
	<path style="fill:#5E9C76;" d="M17.705,8c0.388,0,0.771,0.101,1.109,0.293l0.079,0.045l0.085,0.03
		c0.007,0.002,0.014,0.005,0.021,0.007l2.597,1.267c-2.043,2.278-4.755,5.043-6.146,6.445l-3.832-2.518l4.242-4.601l0.035-0.037
		l0.031-0.041C16.348,8.324,16.997,8,17.705,8 M17.705,7c-0.98,0-1.946,0.443-2.581,1.289l-5.041,5.468l5.499,3.613
		c1.088-1.088,5.219-5.25,7.63-8.052l-3.851-1.879c-0.018-0.007-0.036-0.009-0.055-0.016C18.806,7.139,18.254,7,17.705,7L17.705,7z"
		/>
</g>
<g>
	<path style="fill:#FFEEA3;" d="M27.962,15.5c-0.216,0-0.425-0.044-0.622-0.132l-9.908-4.918c-0.793-0.353-1.143-1.263-0.799-2.036
		C16.879,7.858,17.43,7.5,18.035,7.5c0.215,0,0.426,0.045,0.625,0.134l9.908,4.918c0.793,0.353,1.143,1.263,0.799,2.036
		C29.121,15.142,28.569,15.5,27.962,15.5z"/>
	<path style="fill:#BA9B48;" d="M18.035,8L18.035,8c0.145,0,0.287,0.03,0.383,0.072l9.965,4.945
		c0.522,0.232,0.758,0.846,0.527,1.367C28.744,14.758,28.372,15,27.962,15c-0.146,0-0.287-0.03-0.381-0.071l-9.965-4.945
		c-0.522-0.232-0.758-0.846-0.526-1.368C17.256,8.242,17.627,8,18.035,8 M18.035,7c-0.781,0-1.523,0.452-1.86,1.21
		c-0.456,1.027,0.007,2.231,1.034,2.688l9.927,4.927C27.406,15.944,27.687,16,27.962,16c0.781,0,1.524-0.451,1.862-1.209
		c0.456-1.027-0.007-2.231-1.034-2.688l-9.927-4.927C18.593,7.057,18.312,7,18.035,7L18.035,7z"/>
</g>
</svg>
