<?xml version="1.0" encoding="iso-8859-1"?>
<!-- Generator: Adobe Illustrator 19.1.1, SVG Export Plug-In . SVG Version: 6.00 Build 0)  -->
<svg version="1.1" id="Layer_1" xmlns="http://www.w3.org/2000/svg" xmlns:xlink="http://www.w3.org/1999/xlink" x="0px" y="0px"
	 viewBox="0 0 40 40" style="enable-background:new 0 0 40 40;" xml:space="preserve">
<circle style="fill:#36404D;" cx="8" cy="30" r="1"/>
<g>
	<path style="fill:#A3B7CC;" d="M8,24c3.314,0,6,2.686,6,6s-2.686,6-6,6c-3.314,0-6-2.686-6-6S4.686,24,8,24 M8,23
		c-3.86,0-7,3.14-7,7s3.14,7,7,7s7-3.14,7-7S11.86,23,8,23L8,23z"/>
</g>
<circle style="fill:#36404D;" cx="32" cy="30" r="1"/>
<g>
	<path style="fill:#A3B7CC;" d="M32,24c3.314,0,6,2.686,6,6s-2.686,6-6,6c-3.314,0-6-2.686-6-6S28.686,24,32,24 M32,23
		c-3.86,0-7,3.14-7,7s3.14,7,7,7s7-3.14,7-7S35.86,23,32,23L32,23z"/>
</g>
<g>
	<circle style="fill:#FFEEA3;" cx="27.5" cy="6.5" r="3"/>
	<g>
		<path style="fill:#BA9B48;" d="M27.5,4C28.879,4,30,5.122,30,6.5S28.879,9,27.5,9S25,7.879,25,6.5S26.121,4,27.5,4 M27.5,3
			C25.567,3,24,4.567,24,6.5c0,1.933,1.567,3.5,3.5,3.5c1.933,0,3.5-1.567,3.5-3.5C31,4.567,29.433,3,27.5,3L27.5,3z"/>
	</g>
</g>
<g>
	<path style="fill:#FFEEA3;" d="M19.08,34.5c-0.087,0-0.176-0.008-0.266-0.022c-0.854-0.142-1.436-0.956-1.293-1.814l1.688-7.052
		l-7.521-5.01c-1.168-0.763-1.409-2.551-0.949-3.314c0.225-0.353,0.503-0.611,0.699-0.768l10.275,6.896
		c0.58,0.35,0.873,0.982,0.766,1.626l-1.84,8.114C20.506,33.946,19.853,34.5,19.08,34.5z"/>
	<path style="fill:#BA9B48;" d="M11.483,17.152l9.951,6.678l0.021,0.014l0.021,0.013c0.375,0.226,0.575,0.646,0.513,1.077
		l-1.838,8.11l-0.006,0.028l-0.005,0.029C20.053,33.622,19.607,34,19.08,34c-0.061,0-0.122-0.005-0.181-0.015
		c-0.283-0.047-0.531-0.202-0.698-0.436c-0.162-0.226-0.229-0.5-0.19-0.775l1.604-6.708l0.162-0.678l-0.58-0.387l-7.24-4.821
		c-0.968-0.632-1.095-2.128-0.804-2.613C11.256,17.405,11.372,17.266,11.483,17.152 M11.429,15.912c0,0-0.647,0.376-1.12,1.117
		c-0.591,0.983-0.313,3.065,1.101,3.989l7.232,4.816l-1.613,6.747c-0.189,1.132,0.576,2.203,1.706,2.391
		C18.851,34.991,18.966,35,19.08,35c0.997,0,1.877-0.719,2.046-1.735l1.846-8.142c0.141-0.842-0.249-1.683-0.98-2.123L11.429,15.912
		L11.429,15.912z"/>
</g>
<g>
	<path style="fill:#839CB2;" d="M11.688,20.602c-1.191-0.777-1.429-2.556-0.955-3.306c0.281-0.445,0.567-0.713,0.757-0.857
		l9.678,6.604l-2.562,2.166L11.688,20.602z"/>
	<g>
		<path style="fill:#66798F;" d="M11.531,17.073l8.811,6.013l-1.772,1.499l-6.614-4.405c-0.951-0.621-1.118-2.116-0.802-2.618
			C11.286,17.354,11.416,17.194,11.531,17.073 M11.5,15.841c0,0-0.612,0.271-1.191,1.188c-0.612,0.97-0.313,3.065,1.101,3.989
			l7.232,4.816L21.991,23L11.5,15.841L11.5,15.841z"/>
	</g>
</g>
<g>
	<path style="fill:#DCD5F2;" d="M11.498,16.468c2.232-1.899,8.832-6.319,8.904-6.367C20.97,9.699,21.486,9.5,21.946,9.5
		c0.578,0,1.104,0.329,1.566,0.979c0.018,0.529,0.004,2.732-0.01,4.257l-6.307,4.354l-0.882,0.657L11.498,16.468z"/>
	<path style="fill:#8B75A1;" d="M21.946,10c0.146,0,0.563,0,1.07,0.649c0.01,0.646,0.001,2.395-0.011,3.823l-6.122,4.227
		l-0.582,0.434l-3.968-2.702c2.125-1.688,6.546-4.71,8.368-5.929C21.166,10.173,21.596,10,21.946,10 M21.946,9
		c-0.56,0-1.169,0.224-1.822,0.684c0,0-7.814,5.228-9.431,6.839l5.635,3.837l1.154-0.86L24,15c0,0,0.047-4.626,0-4.695
		C23.428,9.447,22.737,9,21.946,9L21.946,9z"/>
</g>
<g>
	<path style="fill:#FFEEA3;" d="M31.921,20.5c-0.245,0-0.481-0.056-0.704-0.167l-5.696-2.771c-0.213-0.107-0.405-0.268-0.552-0.462
		l-4.167-5.093c-0.508-0.68-0.366-1.67,0.328-2.192C21.406,9.609,21.734,9.5,22.078,9.5c0.502,0,0.961,0.229,1.261,0.63l3.942,4.787
		l5.352,2.599c0.772,0.386,1.089,1.335,0.7,2.112C33.064,20.166,32.523,20.5,31.921,20.5z"/>
	<path style="fill:#BA9B48;" d="M22.078,10c0.342,0,0.656,0.157,0.889,0.466l3.859,4.685l0.139,0.168l0.196,0.095l5.243,2.545
		c0.531,0.266,0.747,0.915,0.482,1.445C32.702,19.772,32.333,20,31.921,20c-0.167,0-0.33-0.038-0.49-0.118l-5.68-2.764
		c-0.15-0.075-0.283-0.186-0.408-0.351l-4.128-5.043c-0.356-0.475-0.26-1.152,0.212-1.507C21.618,10.075,21.843,10,22.078,10
		 M22.078,9c-0.434,0-0.872,0.135-1.247,0.415c-0.917,0.688-1.103,1.99-0.415,2.909l4.154,5.077
		c0.193,0.257,0.445,0.466,0.733,0.611l5.692,2.77C31.292,20.93,31.609,21,31.921,21c0.761,0,1.496-0.421,1.859-1.148
		c0.512-1.026,0.097-2.273-0.929-2.787l-5.253-2.551L23.739,9.83C23.331,9.286,22.709,9,22.078,9L22.078,9z"/>
</g>
</svg>
