<?xml version="1.0" encoding="iso-8859-1"?>
<!-- Generator: Adobe Illustrator 19.1.1, SVG Export Plug-In . SVG Version: 6.00 Build 0)  -->
<svg version="1.1"  xmlns="http://www.w3.org/2000/svg" xmlns:xlink="http://www.w3.org/1999/xlink" x="0px" y="0px"
	 viewBox="0 0 48 48" style="enable-background:new 0 0 48 48;" xml:space="preserve">
<g>
	<circle style="fill:#E0DDDC;" cx="24" cy="24" r="20"/>
</g>
<g>
	
		<line style="fill:none;stroke:#BFBFBF;stroke-width:2;stroke-linecap:square;stroke-linejoin:round;stroke-miterlimit:10;" x1="16" y1="21" x2="10" y2="19"/>
	
		<line style="fill:none;stroke:#BFBFBF;stroke-width:2;stroke-linecap:square;stroke-linejoin:round;stroke-miterlimit:10;" x1="24" y1="9" x2="24" y2="15"/>
	
		<line style="fill:none;stroke:#BFBFBF;stroke-width:2;stroke-linecap:square;stroke-linejoin:round;stroke-miterlimit:10;" x1="19" y1="30" x2="15" y2="36"/>
	
		<line style="fill:none;stroke:#BFBFBF;stroke-width:2;stroke-linecap:square;stroke-linejoin:round;stroke-miterlimit:10;" x1="33" y1="36" x2="29" y2="30"/>
	
		<line style="fill:none;stroke:#BFBFBF;stroke-width:2;stroke-linecap:square;stroke-linejoin:round;stroke-miterlimit:10;" x1="38" y1="19" x2="29" y2="22"/>
</g>
<path style="fill:#546E7A;" d="M16,21l8-6l8,6l-3,9H19L16,21z M29.984,4.936C28.095,4.336,26.089,4,24,4s-4.095,0.336-5.984,0.936
	l-1.641,2.877L24,10l7-2L29.984,4.936z M42,26l2-2c0-4.969-1.822-9.504-4.819-13L37,11.313v8.125L42,26z M32.187,34.813l-4.25,6.75
	l2.281,1.439c4.482-1.466,8.255-4.474,10.716-8.396l-0.81-2.855L32.187,34.813z M11.062,19.438L11,11.313L8.819,11
	C5.822,14.496,4,19.031,4,24l2,2L11.062,19.438z M7.875,31.75l-0.81,2.855c2.461,3.922,6.233,6.93,10.716,8.396l2.156-1.564
	l-4.125-6.625L7.875,31.75z"/>
</svg>
