<?xml version="1.0"?>
<svg xmlns="http://www.w3.org/2000/svg" viewBox="0 0 50 50">
    <path style="line-height:normal;text-indent:0;text-align:start;text-decoration-line:none;text-decoration-style:solid;text-decoration-color:#000;text-transform:none;block-progression:tb;isolation:auto;mix-blend-mode:normal" d="M 24.712891 1.9980469 C 22.451033 2.0253387 20.155532 2.3896135 17.892578 3.125 C 5.8235708 7.0470358 -0.79602663 20.03935 3.125 32.107422 C 7.0460456 44.175552 20.038333 50.796018 32.107422 46.875 C 44.115348 42.973515 50.710991 30.091013 46.914062 18.074219 L 46.914062 18.072266 A 1.0001 1.0001 0 0 0 46.875 17.892578 C 43.934244 8.840785 35.890107 2.8550415 26.960938 2.0820312 C 26.21684 2.0176139 25.466843 1.9889496 24.712891 1.9980469 z M 19.6875 4.6855469 L 24.025391 7.3925781 L 24.025391 15.708984 L 16.533203 21.150391 A 1.0001 1.0001 0 0 0 16.46875 21.128906 L 8.5410156 18.576172 L 7.3203125 13.664062 C 9.8475122 9.7198342 13.702789 6.5900899 18.511719 5.0273438 C 18.902762 4.9002673 19.294901 4.7886778 19.6875 4.6855469 z M 30.308594 4.6875 C 35.339773 6.0056106 39.800309 9.1662957 42.679688 13.662109 L 41.447266 18.623047 L 33.466797 21.152344 L 26.025391 15.744141 L 26.025391 7.359375 L 30.308594 4.6875 z M 7.9492188 20.488281 L 15.857422 23.033203 A 1.0001 1.0001 0 0 0 15.919922 23.050781 L 18.769531 31.828125 L 13.802734 38.667969 L 8.7558594 38.3125 C 7.1447114 36.345654 5.8609825 34.054041 5.0273438 31.488281 C 4.1939191 28.92318 3.8860204 26.316662 4.0332031 23.779297 L 7.9492188 20.488281 z M 42.087891 20.517578 L 45.96875 23.78125 C 46.285189 29.11428 44.52542 34.28813 41.228516 38.3125 L 36.144531 38.671875 L 31.234375 31.818359 L 34.080078 23.054688 L 42.087891 20.517578 z M 20.390625 33 L 29.619141 33 L 34.541016 39.869141 L 32.642578 44.558594 C 32.26411 44.706032 31.881494 44.845532 31.490234 44.972656 C 26.680957 46.535099 21.722691 46.26899 17.359375 44.5625 L 15.439453 39.818359 L 20.390625 33 z"/>
</svg>
