<?xml version="1.0" encoding="iso-8859-1"?>
<!-- Generator: Adobe Illustrator 19.1.1, SVG Export Plug-In . SVG Version: 6.00 Build 0)  -->
<svg version="1.1" id="Layer_1" xmlns="http://www.w3.org/2000/svg" xmlns:xlink="http://www.w3.org/1999/xlink" x="0px" y="0px"
	 viewBox="0 0 40 40" style="enable-background:new 0 0 40 40;" xml:space="preserve">
<g>
	<path style="fill:#F78F8F;" d="M10.938,37.5c-2.758,0-5.018-0.726-6.363-2.043c-1.323-1.295-2.06-3.509-2.075-6.232
		c-0.033-5.99,3.271-13.189,8.416-18.341C17.091,4.702,24.382,2.5,29.146,2.5c2.761,0,5.004,0.724,6.317,2.04
		c4.099,4.103,1.979,16.25-6.337,24.577C22.951,35.298,15.683,37.5,10.938,37.5z"/>
	<path style="fill:#C74343;" d="M29.147,3L29.147,3c2.626,0,4.743,0.672,5.962,1.893c3.94,3.945,1.79,15.734-6.337,23.87
		C22.706,34.836,15.582,37,10.938,37c-2.626,0-4.762-0.675-6.013-1.9C3.698,33.898,3.014,31.811,3,29.222
		c-0.032-5.863,3.214-12.923,8.27-17.985C16.268,6.234,23.285,3,29.147,3 M29.146,2c-5.53,0-12.84,2.78-18.584,8.53
		C1.861,19.242-0.126,31.553,4.225,35.814C5.705,37.263,8.09,38,10.938,38c5.529,0,12.798-2.78,18.542-8.53
		c8.702-8.712,10.594-21.022,6.337-25.284C34.37,2.737,31.994,2,29.146,2L29.146,2z"/>
</g>
<path style="fill:#C74343;" d="M29.48,29.47c-8.702,8.712-20.903,10.606-25.254,6.345c6.621,0,15.323-9.28,18.822-12.784
	S35.817,10.246,35.817,4.186C40.073,8.447,38.181,20.758,29.48,29.47z"/>
<g>
	<circle style="fill:#704E34;" cx="26.5" cy="18.5" r="2"/>
	<path style="fill:#F78F8F;" d="M26.5,17c0.828,0,1.5,0.672,1.5,1.5c0,0.828-0.672,1.5-1.5,1.5S25,19.328,25,18.5
		C25,17.672,25.672,17,26.5,17 M26.5,16c-1.378,0-2.5,1.121-2.5,2.5s1.122,2.5,2.5,2.5s2.5-1.121,2.5-2.5S27.878,16,26.5,16L26.5,16
		z"/>
</g>
<g>
	<circle style="fill:#A16A4A;" cx="21.502" cy="13.5" r="1"/>
	<path style="fill:#704E34;" d="M21.502,13C21.776,13,22,13.224,22,13.5S21.776,14,21.502,14s-0.498-0.224-0.498-0.5
		S21.227,13,21.502,13 M21.502,12c-0.827,0-1.498,0.672-1.498,1.5c0,0.828,0.671,1.5,1.498,1.5S23,14.328,23,13.5
		C23,12.672,22.329,12,21.502,12L21.502,12z"/>
</g>
<line style="fill:none;stroke:#AB3434;stroke-miterlimit:10;" x1="13.077" y1="26.923" x2="26.923" y2="13.077"/>
<line style="fill:none;stroke:#FFFFFF;stroke-miterlimit:10;" x1="21.3" y1="13.3" x2="26.7" y2="18.7"/>
<g>
	<circle style="fill:#704E34;" cx="22.5" cy="22.5" r="2"/>
	<path style="fill:#F78F8F;" d="M22.5,21c0.828,0,1.5,0.672,1.5,1.5c0,0.828-0.672,1.5-1.5,1.5S21,23.328,21,22.5
		C21,21.672,21.672,21,22.5,21 M22.5,20c-1.378,0-2.5,1.121-2.5,2.5s1.122,2.5,2.5,2.5s2.5-1.121,2.5-2.5S23.878,20,22.5,20L22.5,20
		z"/>
</g>
<g>
	<circle style="fill:#A16A4A;" cx="17.502" cy="17.5" r="1"/>
	<path style="fill:#704E34;" d="M17.502,17C17.777,17,18,17.224,18,17.5S17.777,18,17.502,18c-0.275,0-0.498-0.224-0.498-0.5
		S17.227,17,17.502,17 M17.502,16c-0.827,0-1.498,0.672-1.498,1.5c0,0.828,0.671,1.5,1.498,1.5C18.329,19,19,18.328,19,17.5
		C19,16.672,18.329,16,17.502,16L17.502,16z"/>
</g>
<line style="fill:none;stroke:#FFFFFF;stroke-miterlimit:10;" x1="17.316" y1="17.315" x2="22.732" y2="22.715"/>
<g>
	<circle style="fill:#704E34;" cx="18.5" cy="26.5" r="2"/>
	<path style="fill:#F78F8F;" d="M18.5,25c0.828,0,1.5,0.672,1.5,1.5c0,0.828-0.672,1.5-1.5,1.5c-0.828,0-1.5-0.672-1.5-1.5
		C17,25.672,17.672,25,18.5,25 M18.5,24c-1.378,0-2.5,1.121-2.5,2.5s1.122,2.5,2.5,2.5s2.5-1.121,2.5-2.5S19.878,24,18.5,24L18.5,24
		z"/>
</g>
<g>
	<circle style="fill:#A16A4A;" cx="13.501" cy="21.5" r="1"/>
	<path style="fill:#704E34;" d="M13.502,21C13.776,21,14,21.224,14,21.5S13.776,22,13.502,22c-0.275,0-0.498-0.224-0.498-0.5
		S13.227,21,13.502,21 M13.502,20c-0.827,0-1.498,0.672-1.498,1.5c0,0.828,0.671,1.5,1.498,1.5S15,22.328,15,21.5
		C15,20.672,14.329,20,13.502,20L13.502,20z"/>
</g>
<line style="fill:none;stroke:#FFFFFF;stroke-miterlimit:10;" x1="13.3" y1="21.3" x2="18.7" y2="26.7"/>
</svg>
