<?xml version="1.0" encoding="iso-8859-1"?>
<!-- Generator: Adobe Illustrator 19.1.1, SVG Export Plug-In . SVG Version: 6.00 Build 0)  -->
<svg version="1.1" id="Layer_1" xmlns="http://www.w3.org/2000/svg" xmlns:xlink="http://www.w3.org/1999/xlink" x="0px" y="0px"
	 viewBox="0 0 40 40" style="enable-background:new 0 0 40 40;" xml:space="preserve">
<g>
	<path style="fill:#FFEEA3;" d="M10,18.5c-0.313,0-0.612-0.095-0.867-0.275C8.737,17.944,8.5,17.486,8.5,17v-7
		c0-0.827,0.673-1.5,1.5-1.5s1.5,0.673,1.5,1.5v4.88l14.858-5.244l4.871-2.922c0.233-0.14,0.5-0.214,0.77-0.214
		c0.533,0,1.014,0.272,1.288,0.729c0.206,0.343,0.266,0.747,0.169,1.135s-0.34,0.716-0.684,0.922l-5,3
		c-0.085,0.052-0.176,0.094-0.271,0.128l-17.001,6C10.338,18.471,10.17,18.5,10,18.5z"/>
	<path style="fill:#BA9B48;" d="M31.998,7c0.355,0,0.676,0.182,0.859,0.486c0.137,0.229,0.177,0.497,0.113,0.756
		c-0.065,0.259-0.227,0.478-0.456,0.615l-5.003,3.002c-0.055,0.033-0.115,0.061-0.179,0.084l-17.001,6
		C10.225,17.981,10.114,18,10,18c-0.208,0-0.408-0.063-0.578-0.183C9.158,17.629,9,17.324,9,17v-7c0-0.551,0.449-1,1-1s1,0.449,1,1
		v4.173v1.413l1.333-0.47l14.144-4.992l0.095-0.034l0.087-0.052l4.828-2.896C31.642,7.049,31.819,7,31.998,7 M31.998,6
		c-0.35,0-0.705,0.092-1.027,0.286l-4.827,2.896L12,14.173V10c0-1.104-0.896-2-2-2s-2,0.896-2,2v7c0,0.649,0.315,1.258,0.845,1.633
		C9.187,18.875,9.592,19,10,19c0.224,0,0.449-0.038,0.666-0.114l17-6c0.126-0.044,0.249-0.102,0.363-0.171l5-3
		c0.947-0.568,1.254-1.797,0.686-2.744C33.34,6.346,32.678,6,31.998,6L31.998,6z"/>
</g>
<g>
	<path style="fill:#FFEEA3;" d="M18.034,38.5c-0.277,0-0.549-0.076-0.788-0.219c-0.726-0.436-0.962-1.381-0.526-2.107l3.818-6.422
		V22.5H23.5v7.679c0,0.278-0.076,0.552-0.219,0.79l-3.933,6.792C19.072,38.221,18.58,38.5,18.034,38.5z M9.038,35.5
		c-0.545,0-1.039-0.279-1.319-0.746c-0.436-0.726-0.2-1.671,0.526-2.107l5.832-3.534l2.422-6.017V22.5h3.65l-3.453,8.288
		c-0.126,0.293-0.341,0.54-0.62,0.708l-6.253,3.787C9.587,35.424,9.315,35.5,9.038,35.5z"/>
	<path style="fill:#BA9B48;" d="M23,23l0,7.179c0,0.188-0.051,0.372-0.156,0.547l-3.92,6.772C18.735,37.812,18.402,38,18.034,38
		c-0.186,0-0.37-0.051-0.531-0.148c-0.49-0.294-0.649-0.932-0.353-1.425l3.747-6.302l0.14-0.236l0-0.275l0-5.543l0-1.071H23
		 M19.401,23l-0.286,0.687l-2.874,6.899c-0.087,0.202-0.232,0.368-0.423,0.483l-6.248,3.783C9.408,34.949,9.224,35,9.038,35
		c-0.368,0-0.701-0.188-0.89-0.503c-0.294-0.49-0.135-1.127,0.359-1.423l5.688-3.447l0.285-0.173l0.124-0.309l2.324-5.772L17,23.194
		V23H19.401 M24,22h-8v1l-2.324,5.772l-5.688,3.447c-0.964,0.579-1.276,1.829-0.698,2.793C7.672,35.648,8.346,36,9.038,36
		c0.357,0,0.718-0.093,1.046-0.29l6.252-3.785c0.366-0.22,0.655-0.55,0.824-0.944l2.878-6.909l0,0v5.544l-3.747,6.302
		c-0.579,0.964-0.266,2.215,0.698,2.793c0.328,0.197,0.689,0.29,1.046,0.29c0.692,0,1.366-0.353,1.747-0.988l3.929-6.786
		C23.9,30.91,24,30.548,24,30.179L24,22L24,22z"/>
</g>
<g>
	<path style="fill:#99C4B8;" d="M20.506,26.5l0.064-5H23.5v5H20.506z M15.405,25.685l1.095-3.611V21.5h4.067l-2.03,4.872
		L15.405,25.685z"/>
	<path style="fill:#5F9994;" d="M23,22v4h-1.987l0.025-1.916L21.064,22H23 M19.817,22l-0.703,1.687l-0.878,2.107l-2.197-0.481
		l0.917-3.022L17,22.148V22H19.817 M24,21h-8v1l-1.231,4.058l4.07,0.892l1.199-2.878l0,0L20,27h4V21L24,21z"/>
</g>
<g>
	<circle style="fill:#FFEEA3;" cx="17.5" cy="7.5" r="3"/>
	<path style="fill:#BA9B48;" d="M17.5,5C18.879,5,20,6.122,20,7.5S18.879,10,17.5,10S15,8.878,15,7.5S16.121,5,17.5,5 M17.5,4
		C15.566,4,14,5.566,14,7.5s1.566,3.5,3.5,3.5c1.933,0,3.5-1.566,3.5-3.5S19.433,4,17.5,4L17.5,4z"/>
</g>
<g>
	<circle style="fill:#8BB7F0;" cx="28" cy="4" r="2.5"/>
	<path style="fill:#4E7AB5;" d="M28,2c1.103,0,2,0.897,2,2s-0.897,2-2,2s-2-0.897-2-2S26.897,2,28,2 M28,1c-1.658,0-3,1.342-3,3
		s1.342,3,3,3c1.657,0,3-1.342,3-3S29.657,1,28,1L28,1z"/>
</g>
<g>
	<path style="fill:#F78F8F;" d="M16.499,21.5c-0.02-5.264-0.348-7.021-0.806-8.1l6.736-2.377c0.937,2.032,1.064,4.178,1.071,10.478
		H16.499z"/>
	<path style="fill:#C74343;" d="M22.158,11.649c0.669,1.659,0.826,3.64,0.841,9.351h-6.003c-0.034-4.274-0.29-6.157-0.658-7.298
		L22.158,11.649 M22.683,10.403L15,13.114c0.539,1.007,1,2.317,1,8.886h8C24,14.665,23.847,12.67,22.683,10.403L22.683,10.403z"/>
</g>
</svg>
