<?xml version="1.0" encoding="iso-8859-1"?>
<!-- Generator: Adobe Illustrator 19.1.1, SVG Export Plug-In . SVG Version: 6.00 Build 0)  -->
<svg version="1.1"  xmlns="http://www.w3.org/2000/svg" xmlns:xlink="http://www.w3.org/1999/xlink" x="0px" y="0px"
	 viewBox="0 0 48 48" style="enable-background:new 0 0 48 48;" xml:space="preserve">
<path style="fill:#ECEFF1;" d="M16.184,5.586C9.023,8.631,4,15.729,4,24c0,6.297,2.916,11.906,7.463,15.572
	c3.481-1,9.731-4.346,12.537-15.572C24,24,17.629,16.695,16.184,5.586z"/>
<path style="fill:#7E8CCF;" d="M16.184,5.586c-1.924,0.818-3.688,1.938-5.246,3.285c-0.155,14.676,8.99,21.178,10.054,21.938
	c0,0,0.143,0.082,0.364,0.203C22.387,29.107,23.301,26.799,24,24C24,24,17.629,16.695,16.184,5.586z"/>
<path style="fill:#ECEFF1;" d="M24,24c0,0-1,11-11.977,15.99C15.364,42.496,19.502,44,24,44c10.363,0,18.884-7.883,19.898-17.977
	C41.562,24.254,35.367,20.969,24,24z"/>
<path style="fill:#7E8CCF;" d="M24.216,43.99c10.265-0.109,18.675-7.943,19.683-17.967c-1.084-0.822-3.013-1.965-5.891-2.654
	C38.051,25.711,37.877,37.242,24.216,43.99z"/>
<path style="fill:#ECEFF1;" d="M44,24c0-11.047-8.954-20-20-20c-2.859,0-5.572,0.609-8.031,1.691C15.941,7.973,16.471,15.635,24,24
	c0,0,9.935-2.979,19.901,1.953C43.964,25.31,44,24.66,44,24z"/>
<path style="fill:#5F6EC4;" d="M15.969,5.691c0.071-0.031,0.146-0.059,0.217-0.09l-0.002-0.016c-0.759,0.324-1.484,0.705-2.19,1.117
	c0.167,3.238,1.392,10.714,8.52,18.635l0.834,0.928C23.58,25.545,23.801,24.797,24,24C16.471,15.635,15.941,7.973,15.969,5.691z"/>
<path style="fill:#7E8CCF;" d="M40.947,13.414C37.412,7.768,31.153,4,24,4c-2.859,0-5.572,0.609-8.031,1.691
	c-0.012,1.022,0.093,3.129,0.883,5.89l0.181-0.089C18.264,10.877,29.324,7.225,40.947,13.414z"/>
<path style="fill:#FFBA57;" d="M6.78,13.838C5.018,16.816,4,20.289,4,24c0,6.297,2.916,11.906,7.463,15.572
	c1.422-0.408,3.306-1.221,5.227-2.789l0.026-0.275C15.672,35.762,6.193,28.861,6.78,13.838z"/>
<path style="fill:#FFBA57;" d="M11.373,39.504c1.794,1.463,3.854,2.606,6.086,3.379c10.898-5.521,13.744-15.512,13.754-20.068
	C29.084,22.928,26.691,23.281,24,24C24,24,22,35,11.373,39.504z"/>
<path style="fill:#F9A825;" d="M25.656,25.646c0.199-0.836,0.316-1.531,0.386-2.133C25.381,23.652,24.701,23.813,24,24
	c0,0-2,11-12.627,15.504c0.606,0.494,1.253,0.938,1.916,1.357c0.619-0.281,1.288-0.643,1.986-1.127
	C22.269,35.408,24.854,28.504,25.656,25.646z"/>
<path style="fill:#FFBA57;" d="M19.567,17.824l-0.022,0.07c1.111,1.941,2.561,4,4.455,6.105c0,0,9.935-2.979,19.901,1.953
	C43.964,25.31,44,24.66,44,24c0-1.458-0.164-2.871-0.46-4.24C32.135,13.766,20.816,17.201,19.567,17.824z"/>
<path style="fill:#F9A825;" d="M31.299,21.109c-2.897,0-5.234,0.375-6.589,0.662c-0.838,0.18-1.525,0.377-2.113,0.576
	C23.036,22.895,23.501,23.445,24,24c0,0,2.974-0.891,7.299-0.891c3.581,0,8.088,0.609,12.603,2.844C43.964,25.31,44,24.66,44,24
	c0-0.078-0.006-0.152-0.006-0.23c-0.539-0.215-1.195-0.48-2.026-0.82C38.643,21.727,35.067,21.109,31.299,21.109z"/>
</svg>
